<svg xmlns="http://www.w3.org/2000/svg" width="415.812" height="96" viewBox="0 0 415.812 96">
  <g id="Group_9867" data-name="Group 9867" transform="translate(-624 -428)">
    <path id="Path_12097" data-name="Path 12097" d="M59,51.145c-3.022,2.389-3.875,4.8-2,7.149,2.038,2.144,4.553,1.662,7.357-.994,6.564-6.553,12.848-13.458,19.4-20.042,4.958,4.447,11.991,3.854,15.866-1.816,2.582-3.78,6.825-12.418,3.065-16.757s-12.921-1.369-17.023.646C79.5,22.348,77.9,29.255,81.6,34.766,74.149,40.332,66.417,45.558,59,51.145Zm51.839,4.1a47.97,47.97,0,0,0-2.335-8.085,6.113,6.113,0,1,0-11.4,4.412,34.718,34.718,0,0,1,1.74,6.028,35.775,35.775,0,1,1-70.592,2.3A35.869,35.869,0,0,1,63.653,28.664a36.582,36.582,0,0,1,4.607.3,6.1,6.1,0,1,0,1.553-12.1A47.978,47.978,0,0,0,25.752,93.8a47.678,47.678,0,0,0,31.865,18.266,49.436,49.436,0,0,0,9.2.288,48.029,48.029,0,0,0,44.02-57.113ZM91.383,50.318c-2.111-2.248-4.711-1.763-7.6.987-6.447,6.423-9.9,10.843-16.3,17.323l-1.71-1.96a5.894,5.894,0,0,0-8.3-.588L42.11,79.387a2.125,2.125,0,0,0-.214,2.994l.037.023a2.075,2.075,0,0,0,2.964.214L58.333,70.983a1.938,1.938,0,0,1,2.624.268l.033.05a1.924,1.924,0,0,1-.107,2.623L47.446,85.542a2.127,2.127,0,0,0-.214,2.994l.044.054a2.139,2.139,0,0,0,2.975.214L63.687,77.138a1.94,1.94,0,0,1,2.6.267l.044.054a1.9,1.9,0,0,1-.107,2.619L52.79,91.717a2.118,2.118,0,0,0-.214,2.974l.05.057a2.1,2.1,0,0,0,2.958.211l15.38-13.324a5.885,5.885,0,0,0,.593-8.3l-1.713-1.957c7.333-5.426,12.185-8.21,19.465-13.673C92.434,55.213,93.31,52.727,91.383,50.318Z" transform="translate(608.28 411.548)" fill="#0973b9"/>
    <g id="Group_19586" data-name="Group 19586" transform="translate(738.84 458.109)">
      <g id="Group_19585" data-name="Group 19585" transform="translate(0 0)">
        <path id="Path_12087" data-name="Path 12087" d="M863.864,144.293a9.436,9.436,0,0,0-2.419-6.713,16.931,16.931,0,0,0-6.815-4.065l-2.093-.7a12.7,12.7,0,0,1-4-1.951,2.739,2.739,0,0,1-1.07-2.183,2.468,2.468,0,0,1,1.14-2.114,5.129,5.129,0,0,1,3.093-.859,4.574,4.574,0,0,1,2.977.952,5.3,5.3,0,0,1,1.651,2.369l.163.488,6.4-2.695-.14-.418A10.967,10.967,0,0,0,851.63,119a13.1,13.1,0,0,0-5.791,1.278,9.7,9.7,0,0,0-4,3.554,9.089,9.089,0,0,0-1.419,4.994,8.42,8.42,0,0,0,2.419,6.132,14.537,14.537,0,0,0,5.652,3.531l2.047.743a18.6,18.6,0,0,1,4.931,2.462,3.343,3.343,0,0,1,1.256,2.671v.046a2.861,2.861,0,0,1-1.279,2.509,5.592,5.592,0,0,1-3.326.976,5.361,5.361,0,0,1-3.861-1.463,8.374,8.374,0,0,1-2.233-4.019l-.14-.511L839,144.572l.116.418a13.531,13.531,0,0,0,4.861,7.224,13.252,13.252,0,0,0,7.792,2.555h.209a14.17,14.17,0,0,0,5.605-1.161,10.633,10.633,0,0,0,4.489-3.531A9.41,9.41,0,0,0,863.864,144.293Z" transform="translate(-785.742 -118.95)" fill="#0973b9"/>
        <path id="Path_12088" data-name="Path 12088" d="M1315.774,185.636v2.745h6.652V163.423H1315.4v12.583a7.082,7.082,0,0,1-1.442,4.559,4.586,4.586,0,0,1-3.791,1.744,3.284,3.284,0,0,1-2.7-1.209,5.318,5.318,0,0,1-1.047-3.512V163.4H1299.4v14.932c0,3.28.791,5.861,2.349,7.722a8.468,8.468,0,0,0,6.861,2.814h.116a9.841,9.841,0,0,0,4.373-1.047A7.6,7.6,0,0,0,1315.774,185.636Z" transform="translate(-1139.066 -153.073)" fill="#0973b9"/>
        <path id="Path_12089" data-name="Path 12089" d="M1181.18,148.423l.279-.325-5.14-4.878-.326.395a10.5,10.5,0,0,1-8.443,4.2,10.834,10.834,0,0,1-5.443-1.37,9.722,9.722,0,0,1-3.838-3.856,11.637,11.637,0,0,1-1.4-5.784,11.466,11.466,0,0,1,1.419-5.784,9.721,9.721,0,0,1,3.838-3.856,11.206,11.206,0,0,1,5.443-1.37,9.687,9.687,0,0,1,7.652,3.6l.326.372,5.094-4.948-.3-.325a16.62,16.62,0,0,0-12.816-5.6h-.186a17.791,17.791,0,0,0-8.885,2.369,17.473,17.473,0,0,0-6.489,6.458,17.937,17.937,0,0,0-2.372,9.059,17.645,17.645,0,0,0,2.372,9.059,17.412,17.412,0,0,0,6.466,6.458,18,18,0,0,0,9.071,2.369h.209a18.244,18.244,0,0,0,7.443-1.6A16.821,16.821,0,0,0,1181.18,148.423Z" transform="translate(-1024.1 -118.876)" fill="#0973b9"/>
        <path id="Path_12090" data-name="Path 12090" d="M1554.693,143.513a10.5,10.5,0,0,1-8.443,4.2,10.834,10.834,0,0,1-5.443-1.37,9.722,9.722,0,0,1-3.838-3.856,11.637,11.637,0,0,1-1.4-5.784,11.466,11.466,0,0,1,1.419-5.784,9.873,9.873,0,0,1,3.838-3.856,11.206,11.206,0,0,1,5.443-1.37,9.687,9.687,0,0,1,7.652,3.6l.326.372,5.094-4.948-.3-.325a16.62,16.62,0,0,0-12.816-5.6,18,18,0,0,0-9.071,2.369,17.474,17.474,0,0,0-6.489,6.458,17.937,17.937,0,0,0-2.372,9.059,17.645,17.645,0,0,0,2.372,9.059,17.306,17.306,0,0,0,6.489,6.458,17.791,17.791,0,0,0,8.885,2.369h.4a18.244,18.244,0,0,0,7.443-1.6,16.861,16.861,0,0,0,6-4.669l.279-.325-5.14-4.878Z" transform="translate(-1314.726 -118.798)" fill="#0973b9"/>
        <path id="Path_12091" data-name="Path 12091" d="M1694.1,176.106a7.082,7.082,0,0,1-1.442,4.559,4.586,4.586,0,0,1-3.791,1.744,3.284,3.284,0,0,1-2.7-1.209,5.318,5.318,0,0,1-1.047-3.512V163.5H1678.1v14.932c0,3.28.791,5.861,2.349,7.722a8.468,8.468,0,0,0,6.861,2.814h.093a9.843,9.843,0,0,0,4.373-1.047,8.011,8.011,0,0,0,2.7-2.21v2.512h6.652V163.5H1694.1v12.606Z" transform="translate(-1429.694 -153.15)" fill="#0973b9"/>
        <path id="Path_12092" data-name="Path 12092" d="M617.117,139.574l-.256-3.693,7.978,20.6h5.536l7.931-20.579-.256,3.647v16.933h7.164V122.2h-8.908l-8.722,23.065-8.7-23.065H610v34.283h7.117Z" transform="translate(-610 -121.409)" fill="#0973b9"/>
        <path id="Path_12093" data-name="Path 12093" d="M971.877,122.2h-7.862L951.2,156.483h7.931l2.791-7.967h12.095l2.791,7.967h7.931Zm-3.908,8.687.954,3.159,2.721,7.758h-7.4l2.768-7.781Z" transform="translate(-871.848 -121.409)" fill="#0973b9"/>
        <rect id="Rectangle_2852" data-name="Rectangle 2852" width="7.21" height="34.283" transform="translate(41.889 0.791)" fill="#0973b9"/>
        <path id="Path_12094" data-name="Path 12094" d="M1444.569,131.793h-9.28l-8.164,8.246V122.2H1420.1v34.283h7.024v-7.642l2.512-2.462,6.3,10.1h8.629L1434.59,141.5Z" transform="translate(-1231.695 -121.409)" fill="#0973b9"/>
        <path id="Path_12095" data-name="Path 12095" d="M1823.369,131.592h-9.28l-8.164,8.246V122H1798.9v34.283h7.024v-7.642l2.512-2.462,6.3,10.1h8.629l-9.978-14.981Z" transform="translate(-1522.398 -121.254)" fill="#0973b9"/>
      </g>
    </g>
  </g>
</svg>
